Coordinates
version=1
nRows=12
nColumns=23
inDegrees=yes

Units are S.I. units (second, meters, Newtons, ...)
If the header above contains a line with 'inDegrees', this indicates whether rotational values are in degrees (yes) or radians (no).

endheader
time	pelvis_tilt	pelvis_list	pelvis_rotation	pelvis_tx	pelvis_ty	pelvis_tz	hip_flexion_r	hip_adduction_r	hip_rotation_r	knee_angle_r	knee_angle_r_beta	ankle_angle_r	subtalar_angle_r	mtp_angle_r	hip_flexion_l	hip_adduction_l	hip_rotation_l	knee_angle_l	knee_angle_l_beta	ankle_angle_l	subtalar_angle_l	mtp_angle_l
     15.00000000	     -3.41130201	     -4.99672243	     -4.14557169	      2.07722005	      0.96296496	      1.11418601	     21.85759656	      6.93952880	     -5.62344613	     44.98483382	      0.78513346	     24.29705959	     -2.54350119	      0.00000000	     20.43441016	     -9.97724523	     -0.18497941	     90.55421784	      1.58046925	     -0.39032771	     -6.59899784	      0.00000000
     15.00666667	     -3.45186886	     -4.68360414	     -4.25973269	      2.07641781	      0.96396904	      1.11447568	     20.54637599	      6.61182257	     -5.31923653	     44.45081221	      0.77581303	     24.83245212	     -2.29383998	      0.00000000	     21.91409448	     -9.77505282	     -0.19932591	     90.60570052	      1.58136780	      0.02506628	     -6.65077827	      0.00000000
     15.01333333	     -3.35171414	     -4.64451008	     -3.90897810	      2.07602766	      0.96538400	      1.11403861	     18.92087434	      6.25907503	     -5.84646917	     43.69156302	      0.76256163	     25.72713053	     -1.25117828	      0.00000000	     23.31038485	     -9.66345172	      0.26144459	     90.54598672	      1.58032559	      0.91533702	     -6.34820983	      0.00000000
     15.02000000	     -3.09382103	     -4.41470015	     -3.73788123	      2.07599231	      0.96768779	      1.11378128	     16.97525127	      5.79984452	     -6.10330318	     42.63536510	      0.74412750	     26.19041976	     -0.11380676	      0.00000000	     24.29729747	     -9.40483183	      0.34859963	     90.04695259	      1.57161580	      1.42793262	     -6.14784185	      0.00000000
     15.02666667	     -3.40093687	     -3.98278646	     -3.83846908	      2.07558254	      0.96961025	      1.11390567	     15.70150644	      5.39693807	     -5.73507199	     41.57571851	      0.72563318	     26.44481236	      0.19551836	      0.00000000	     25.81983994	     -9.05627411	      0.12274142	     89.35938979	      1.55961557	      1.88189763	     -6.11426614	      0.00000000
     15.03333333	     -2.94871735	     -3.83890788	     -3.56184598	      2.07611397	      0.97311606	      1.11349847	     13.25663925	      5.09356759	     -5.95870574	     39.93339772	      0.69696927	     26.51386203	      0.99312916	      0.00000000	     26.35898079	     -8.86165760	      0.14960259	     88.30302168	      1.54117847	      2.48928523	     -5.83804989	      0.00000000
     15.04000000	     -3.46641307	     -3.31051750	     -3.64261604	      2.07610159	      0.97554511	      1.11347239	     12.08569740	      4.61334752	     -5.57235630	     38.59926536	      0.67368427	     26.51716018	      1.35682481	      0.00000000	     27.88686760	     -8.39707456	     -0.21922480	     87.10296867	      1.52023359	      2.94541050	     -5.74852684	      0.00000000
     15.04666667	     -2.93008398	     -3.04422280	     -3.27575587	      2.07718190	      0.97993242	      1.11279698	      9.36939168	      4.21801225	     -5.80004798	     36.55430812	      0.63799303	     26.01828103	      1.86672174	      0.00000000	     28.06180581	     -7.96268810	     -0.27601022	     85.48338773	      1.49196657	      3.46214563	     -5.62390542	      0.00000000
     15.05333333	     -2.96784777	     -2.61563484	     -3.11513322	      2.07802474	      0.98374151	      1.11239213	      7.40471847	      3.79029269	     -5.68550216	     34.68142429	      0.60530504	     25.41951479	      2.22159488	      0.00000000	     28.76827562	     -7.45502718	     -0.56408120	     83.69912957	      1.46082539	      3.91188381	     -5.54797720	      0.00000000
     15.06000000	     -3.04524047	     -2.15040761	     -2.90334881	      2.07907543	      0.98775545	      1.11181990	      5.44794161	      3.31778216	     -5.66516540	     32.70457592	      0.57080253	     24.46512763	      2.52775208	      0.00000000	     29.39041930	     -6.85420270	     -0.85564018	     81.66055696	      1.42524559	      4.32537108	     -5.53691703	      0.00000000
     15.06666667	     -3.16711186	     -1.67311004	     -2.64752973	      2.08026724	      0.99186836	      1.11115821	      3.54727087	      2.84936310	     -5.67241997	     30.70885487	      0.53597063	     23.25572650	      2.74583165	      0.00000000	     29.94371219	     -6.19533744	     -1.13784469	     79.40011643	      1.38579346	      4.68850836	     -5.58163923	      0.00000000
     15.07333333	     -3.33152131	     -1.19636664	     -2.39238130	      2.08156561	      0.99603120	      1.11047162	      1.71009050	      2.39627203	     -5.70342781	     28.69984965	      0.50090687	     21.74393887	      2.89136918	      0.00000000	     30.41828570	     -5.52264587	     -1.44034591	     76.91913398	      1.34249215	      5.02307390	     -5.62558393	      0.00000000
